<svg xmlns="http://www.w3.org/2000/svg" width="139" height="28"><path d="M41.662 8.22h2.6v11.513h-2.6v-4.885h-4.364v4.885h-2.6V8.22h2.6v4.402h4.364zm8.667 5.748a5.21 5.21 0 0 0 .208 1.528c.14.455.34.845.6 1.17s.58.58.958.756.8.267 1.3.267c.477 0 .908-.1 1.29-.267a2.62 2.62 0 0 0 .966-.756c.26-.326.46-.716.6-1.17s.208-.964.208-1.53-.07-1.077-.208-1.537a3.485 3.485 0 0 0-.6-1.18 2.63 2.63 0 0 0-.966-.755 3.041 3.041 0 0 0-1.291-.266c-.49 0-.922.09-1.3.274a2.73 2.73 0 0 0-.957.764c-.26.327-.46.72-.6 1.18s-.208.966-.208 1.52zm8.812 0c0 .985-.148 1.852-.44 2.6s-.698 1.373-1.208 1.877a4.954 4.954 0 0 1-1.824 1.138 6.635 6.635 0 0 1-2.274.382 6.465 6.465 0 0 1-2.232-.382 5.125 5.125 0 0 1-1.833-1.138c-.522-.504-.932-1.13-1.232-1.877s-.45-1.615-.45-2.6.155-1.853.466-2.6.73-1.376 1.258-1.886a5.17 5.17 0 0 1 1.832-1.146 6.297 6.297 0 0 1 2.19-.383c.8 0 1.533.128 2.233.383s1.3.637 1.832 1.146.933 1.138 1.233 1.886.45 1.614.45 2.6zm6.534 3.788c.367 0 .67-.03.908-.092s.43-.143.575-.25a.833.833 0 0 0 .3-.373c.055-.143.083-.304.083-.48 0-.377-.178-.7-.533-.94s-.966-.518-1.832-.806a13.711 13.711 0 0 1-1.133-.457 4.164 4.164 0 0 1-1.016-.648 3.1 3.1 0 0 1-.733-.947c-.2-.37-.283-.822-.283-1.354s.1-1 .3-1.437.482-.79.85-1.088.8-.528 1.33-.7a6.006 6.006 0 0 1 1.766-.24c.778 0 1.45.083 2.016.25s1.033.35 1.4.548l-.75 2.044a7.161 7.161 0 0 0-1.074-.44c-.394-.128-.87-.192-1.424-.192-.622 0-1.07.087-1.34.258s-.408.435-.408.79c0 .2.05.388.15.532a1.45 1.45 0 0 0 .424.39c.184.116.395.222.634.316l.79.3 1.566.657c.444.216.813.468 1.108.756a2.75 2.75 0 0 1 .658 1.013c.144.388.216.858.216 1.412 0 1.074-.378 1.908-1.133 2.5s-1.893.9-3.415.9a9.46 9.46 0 0 1-1.382-.092 9.042 9.042 0 0 1-1.091-.225 6.28 6.28 0 0 1-.817-.282 6.184 6.184 0 0 1-.574-.283l.733-2.06c.344.2.768.358 1.274.507s1.124.225 1.857.225M81.672 8.22v2.2H78.2v9.303h-2.6V10.43H72.1V8.22zm2.886 11.513h2.6V8.22h-2.6zm14.23 0a57.88 57.88 0 0 0-2.416-3.905 39.796 39.796 0 0 0-2.765-3.638v7.543h-2.565V8.22h2.115a20.4 20.4 0 0 1 1.216 1.345l1.358 1.703 1.374 1.877 1.283 1.87V8.22h2.582v11.513H98.79m11.698-9.52c-1.2 0-2.085.335-2.624 1.005s-.807 1.587-.807 2.75c0 .564.066 1.077.2 1.537s.333.855.6 1.187a2.7 2.7 0 0 0 1 .773c.4.183.866.274 1.4.274l.74-.017c.206-.01.386-.033.54-.066v-4.004h2.6v5.7c-.312.122-.81.25-1.5.4s-1.538.208-2.55.208c-.866 0-1.652-.134-2.357-.4a4.932 4.932 0 0 1-1.807-1.163c-.5-.5-.886-1.135-1.158-1.877s-.408-1.6-.408-2.542c0-.964.15-1.816.45-2.56s.7-1.37 1.233-1.885a5.196 5.196 0 0 1 1.84-1.171 6.341 6.341 0 0 1 2.257-.4 9.176 9.176 0 0 1 2.607.358 5.206 5.206 0 0 1 1.225.523l-.75 2.077a6.83 6.83 0 0 0-1.224-.49 5.223 5.223 0 0 0-1.508-.208m7.284 9.52V8.22h7.796v2.176h-5.197v2.26h4.614v2.126h-4.614v2.774h5.58v2.177zm14.847-9.437l-.508.017-.425.033v3.123h.733c.977 0 1.677-.12 2.1-.365s.633-.66.633-1.246c0-.565-.214-.966-.64-1.205s-1.058-.357-1.89-.357m-.15-2.2c1.733 0 3.06.308 3.98.923s1.383 1.57 1.383 2.866c0 .808-.186 1.465-.558 1.968s-.908.9-1.607 1.188l.732.99.76 1.163.724 1.262.65 1.288h-2.906l-.643-1.147a30.4 30.4 0 0 0-1.346-2.168 11.515 11.515 0 0 0-.669-.889h-1.283v4.204h-2.598V8.385c.566-.1 1.152-.188 1.757-.232a22.319 22.319 0 0 1 1.624-.066M0 12.975V0l6.547 3.492v5.846l8.667.004 6.653 3.633zm16.986-4.707V0L23.7 3.405v8.77zm0 15.858V18.33l-8.733-.006c.008.04-6.764-3.69-6.764-3.69l22.22.104v12.975l-6.723-3.587zM0 24.126v-8.478l6.547 3.814v8.07z" fill="#6741ca" fill-rule="evenodd"/></svg>