<svg height="224" viewBox="0 0 422 224" width="422" xmlns="http://www.w3.org/2000/svg" xmlns:xlink="http://www.w3.org/1999/xlink"><defs><rect id="a" height="200" rx="3" width="255" x="42"/><filter id="b" height="118%" width="114.1%" x="-7.1%" y="-9%"><feOffset in="SourceAlpha" result="shadowOffsetOuter1"/><feGaussianBlur in="shadowOffsetOuter1" result="shadowBlurOuter1" stdDeviation="6"/><feColorMatrix in="shadowBlurOuter1" values="0 0 0 0 0 0 0 0 0 0 0 0 0 0 0 0 0 0 0.101343969 0"/></filter><rect id="c" height="80" rx="2" width="235" x="52" y="105"/><mask id="d" fill="#fff" height="80" width="235" x="0" y="0"><use xlink:href="#c"/></mask><rect id="e" height="80" rx="2" width="117.5" x="52" y="105"/><mask id="f" fill="#fff" height="80" width="117.5" x="0" y="0"><use xlink:href="#e"/></mask><rect id="g" height="88" rx="2" width="235"/><filter id="h" height="181.8%" width="130.6%" x="-15.3%" y="-40.9%"><feOffset in="SourceAlpha" result="shadowOffsetOuter1"/><feGaussianBlur in="shadowOffsetOuter1" result="shadowBlurOuter1" stdDeviation="12"/><feColorMatrix in="shadowBlurOuter1" values="0 0 0 0 0 0 0 0 0 0 0 0 0 0 0 0 0 0 0.101343969 0"/></filter><rect id="i" height="100" rx="2.4" width="88"/><filter id="j" height="129%" width="133%" x="-14.2%" y="-12.5%"><feOffset dx="2" dy="2" in="SourceAlpha" result="shadowOffsetOuter1"/><feGaussianBlur in="shadowOffsetOuter1" result="shadowBlurOuter1" stdDeviation="4.5"/><feColorMatrix in="shadowBlurOuter1" values="0 0 0 0 0 0 0 0 0 0 0 0 0 0 0 0 0 0 0.104348776 0"/></filter><rect id="k" height="9.6" rx=".8" width="40" y="54.4"/><filter id="l" height="287.5%" width="145%" x="-22.5%" y="-93.7%"><feOffset in="SourceAlpha" result="shadowOffsetOuter1"/><feGaussianBlur in="shadowOffsetOuter1" result="shadowBlurOuter1" stdDeviation="3"/><feColorMatrix in="shadowBlurOuter1" values="0 0 0 0 0 0 0 0 0 0 0 0 0 0 0 0 0 0 0.198426573 0"/></filter><mask id="m" fill="#fff"><path d="m0 0h540v236h-540z" fill="#fff" fill-rule="evenodd"/></mask></defs><g fill="none" fill-rule="evenodd" mask="url(#m)" transform="translate(-47 -6)"><g transform="translate(71 18)"><use fill="#000" filter="url(#b)" xlink:href="#a"/><use fill="#fff" xlink:href="#a"/><use fill="#f0f4fa" mask="url(#d)" stroke="#cbd7e7" stroke-dasharray="3" stroke-width="2" xlink:href="#c"/><use fill="#f0f4fa" mask="url(#f)" stroke="#cbd7e7" stroke-dasharray="3" stroke-width="2" xlink:href="#e"/><path d="m54 15h231a2 2 0 0 1 2 2v76a2 2 0 0 1 -2 2h-231a2 2 0 0 1 -2-2v-76a2 2 0 0 1 2-2z" fill="#6747c7"/><g transform="translate(0 34)"><use fill="#000" filter="url(#h)" xlink:href="#g"/><use fill="#fff" xlink:href="#g"/><rect fill="#cbd7e7" height="6" rx="3" width="116" x="20" y="20"/><g fill="#e2e8f0"><rect height="3" rx="1.5" width="195" x="20" y="38"/><rect height="3" rx="1.5" width="195" x="20" y="45"/><rect height="3" rx="1.5" width="161" x="20" y="52"/><rect height="3" rx="1.5" width="55" x="20" y="65"/></g></g></g><path d="m189 164h-6v6h-2v-6h-6v-2h6v-6h2v6h6z" fill="#cbd7e7" fill-rule="nonzero"/><path d="m170 151h24v24h-24z"/><path d="m306 164h-6v6h-2v-6h-6v-2h6v-6h2v6h6z" fill="#cbd7e7" fill-rule="nonzero"/><path d="m287 151h24v24h-24z"/><g transform="translate(445 39)"><rect fill="#e7ebf1" height="24" rx="4" width="24"/><path d="m3.862 16.8 3.84-9.024h1.818l3.84 9.024h-2.06l-.82-2.01h-3.789l-.819 2.01zm3.533-3.75h2.381l-1.19-2.906-1.19 2.906zm9.088 3.878c-.674 0-1.235-.186-1.683-.557s-.672-.885-.672-1.542v-.026c0-.725.25-1.271.749-1.638s1.171-.55 2.016-.55c.572 0 1.13.093 1.677.281v-.115c0-.836-.491-1.255-1.472-1.255-.59 0-1.22.124-1.895.372l-.486-1.485a6.553 6.553 0 0 1 2.662-.55c1.033 0 1.805.255 2.317.767.495.495.742 1.225.742 2.19v3.98h-1.881v-.742c-.52.58-1.212.87-2.074.87zm.589-1.344c.452 0 .82-.113 1.1-.34a1.06 1.06 0 0 0 .423-.863v-.346a2.91 2.91 0 0 0 -1.241-.256c-.419 0-.747.081-.986.243-.239.163-.358.397-.358.704v.026c0 .256.098.459.294.608.196.15.452.224.768.224z" fill="#cbd7e7" fill-rule="nonzero"/></g><g transform="translate(445 72.6)"><rect fill="#e7ebf1" height="24" rx="4" width="24"/><rect height="10.4" rx="1.6" stroke="#cbd7e7" stroke-width=".8" width="15.2" x="4.4" y="6.8"/></g><g transform="translate(445 106.2)"><rect fill="#e7ebf1" height="24" rx="4" width="24"/><g fill="#cbd7e7"><rect height="7.2" rx="1.6" width="7.2" x="4" y="4"/><rect height="7.2" rx="1.6" width="7.2" x="4" y="12.8"/><rect height="7.2" rx="1.6" width="7.2" x="12.8" y="4"/></g></g><g transform="translate(445 139.8)"><rect fill="#e7ebf1" height="24" rx="4" width="24"/><path d="m19.2 6.4a1.6 1.6 0 0 1 1.6 1.6v8a1.6 1.6 0 0 1 -1.6 1.6h-14.4a1.6 1.6 0 0 1 -1.6-1.6v-8a1.6 1.6 0 0 1 1.6-1.6zm-9.495 3.382a.8.8 0 0 0 -.105.397v3.642a.8.8 0 0 0 1.197.695l3.187-1.821a.8.8 0 0 0 0-1.39l-3.187-1.821a.8.8 0 0 0 -1.092.298z" fill="#cbd7e7"/></g><g transform="translate(445 173.4)"><rect fill="#e7ebf1" height="24" rx="4" width="24"/><path d="m8.894 14.575-4.26-1.865v-1.215l4.26-1.865v1.24l-2.975 1.224 2.975 1.223zm.528 1.751 3.898-8.148h1.135l-3.898 8.148zm5.684-1.75v-1.242l2.975-1.223-2.975-1.223v-1.258l4.26 1.865v1.215l-4.26 1.865z" fill="#cbd7e7" fill-rule="nonzero"/></g><g transform="translate(332.8 68)"><use fill="#000" filter="url(#j)" xlink:href="#i"/><use fill="#fff" xlink:href="#i"/></g><g transform="translate(340.8 84)"><rect fill="#cbd7e7" height="4.8" rx="2.4" width="56"/><g fill="#e2e8f0" transform="translate(0 14.4)"><rect height="2.4" rx="1.2" width="72"/><rect height="2.4" rx="1.2" width="72" y="5.6"/><rect height="2.4" rx="1.2" width="72" y="11.2"/><rect height="2.4" rx="1.2" width="28" y="16.8"/></g><use fill="#000" filter="url(#l)" xlink:href="#k"/><use fill="#6747c7" xlink:href="#k"/></g></g></svg>