<svg height="198" viewBox="0 0 448 198" width="448" xmlns="http://www.w3.org/2000/svg" xmlns:xlink="http://www.w3.org/1999/xlink"><defs><rect id="a" height="176" rx="8" width="232.8"/><filter id="b" height="119.9%" width="115%" x="-7.5%" y="-8.8%"><feMorphology in="SourceAlpha" operator="dilate" radius=".5" result="shadowSpreadOuter1"/><feOffset dy="2" in="shadowSpreadOuter1" result="shadowOffsetOuter1"/><feGaussianBlur in="shadowOffsetOuter1" result="shadowBlurOuter1" stdDeviation="5"/><feColorMatrix in="shadowBlurOuter1" values="0 0 0 0 0 0 0 0 0 0 0 0 0 0 0 0 0 0 0.087385271 0"/></filter><path id="c" d="m18.602 37.166c10.162 0 18.4-8.238 18.4-18.4s-8.238-18.4-18.4-18.4-18.4 8.238-18.4 18.4 8.238 18.4 18.4 18.4zm0-4c-7.953 0-14.4-6.447-14.4-14.4s6.447-14.4 14.4-14.4 14.4 6.447 14.4 14.4-6.447 14.4-14.4 14.4z"/><path id="d" d="m18.602 37.166c10.162 0 18.4-8.238 18.4-18.4s-8.238-18.4-18.4-18.4-18.4 8.238-18.4 18.4 8.238 18.4 18.4 18.4zm0-4c-7.953 0-14.4-6.447-14.4-14.4s6.447-14.4 14.4-14.4 14.4 6.447 14.4 14.4-6.447 14.4-14.4 14.4z"/><rect id="e" height="126" rx="2" width="235"/><filter id="f" height="157.1%" width="130.6%" x="-15.3%" y="-28.6%"><feOffset in="SourceAlpha" result="shadowOffsetOuter1"/><feGaussianBlur in="shadowOffsetOuter1" result="shadowBlurOuter1" stdDeviation="12"/><feColorMatrix in="shadowBlurOuter1" values="0 0 0 0 0 0 0 0 0 0 0 0 0 0 0 0 0 0 0.101343969 0"/></filter><mask id="g" fill="#fff"><path d="m0 0h540v236h-540z" fill="#fff" fill-rule="evenodd"/></mask><mask id="h" fill="#fff"><use fill="#fff" fill-rule="evenodd" xlink:href="#c"/></mask><mask id="i" fill="#fff"><use fill="#fff" fill-rule="evenodd" xlink:href="#d"/></mask></defs><g fill="none" fill-rule="evenodd" mask="url(#g)" transform="translate(-40 -21)"><g transform="translate(244 30)"><use fill="#000" filter="url(#b)" xlink:href="#a"/><use fill="#fff" xlink:href="#a"/><path d="m24.8 133.4h9.33v9.33h-9.33z"/><path d="m29.6 135.8c.44 0 .8.36.8.8s-.36.8-.8.8-.8-.36-.8-.8.36-.8.8-.8zm0 4c1.08 0 2.32.516 2.4.8h-4.8c.092-.288 1.324-.8 2.4-.8zm0-4.8a1.6 1.6 0 1 0 0 3.2 1.6 1.6 0 0 0 0-3.2zm0 4c-1.068 0-3.2.536-3.2 1.6v.8h6.4v-.8c0-1.064-2.132-1.6-3.2-1.6zm.892-54.042-1.22-.617c.486-.381.799-.975.799-1.646 0-1.154-.93-2.095-2.071-2.095-1.14 0-2.07.941-2.07 2.095 0 .812.459 1.516 1.129 1.863v1.242l-.693-.149-.038-.007a.742.742 0 0 0 -.651.213l-.527.541 1.916 1.94a.866.866 0 0 0 .622.262h2.371a.751.751 0 0 0 .742-.636l.301-1.794a1.144 1.144 0 0 0 -.61-1.212zm-.132 1.086-.3 1.794h-2.372a.138.138 0 0 1 -.09-.038l-1.386-1.402 1.6.34v-4.043c0-.106.083-.19.188-.19s.188.084.188.19v2.286h.663l1.302.659c.151.076.234.24.207.404zm-3.678-3.349c0-.735.591-1.333 1.318-1.333s1.318.598 1.318 1.333c0 .362-.143.69-.377.93v-.93a.947.947 0 0 0 -.941-.952.947.947 0 0 0 -.941.952v.93a1.328 1.328 0 0 1 -.377-.93z" fill="#e5dcff" fill-rule="nonzero"/><rect fill="#dddefd" height="2.4" rx=".8" width="93.6" x="24.8" y="143.8"/><rect fill="#8d1ff9" height="2.4" rx="1.2" width="52" x="24.8" y="143.8"/><path d="m210 128.581-2.364 2.284m2.364-2.144-2.364-2.386" stroke="#c4c4c4" stroke-width=".5"/><g transform="translate(150.4 111.8)"><use fill="#8d1ff9" fill-rule="nonzero" xlink:href="#c"/><path d="m-11.272 24.8 29.27-4.723-2.196-4.018 2.8-8.737v-10.796c-16.07-1.978-24.105 1.62-24.105 10.796 0 13.762-5.91 33.52 4.325 34.403 6.823.589 3.458-5.053-10.094-16.925z" fill="#dddefd" mask="url(#h)"/></g><path d="m15.2 103.366h203.2" stroke="#f2f2f2" stroke-width=".8"/><path d="m210 78.181-2.364 2.284m2.364-2.144-2.364-2.386" stroke="#c4c4c4" stroke-width=".5"/><g transform="translate(150.4 57.4)"><use fill="#8d1ff9" fill-rule="nonzero" xlink:href="#d"/><path d="m5.7 43.271c8.068-14.73 12.167-22.462 12.298-23.194.13-.732-.602-2.071-2.196-4.018l2.8-8.737v-10.796c-16.07-1.978-24.105 1.62-24.105 10.796 0 13.762-5.91 33.52 4.325 34.403 6.823.589 9.116 1.104 6.879 1.546z" fill="#dddefd" mask="url(#i)"/></g><g fill="#dddefd"><rect height="5.507" rx="2.754" width="134.4" x="18" y="31"/><rect height="5.507" opacity=".689" rx="2.754" width="108" x="25" y="64"/><rect height="5.507" opacity=".689" rx="2.754" width="108" x="25" y="118"/></g><path d="m15.2 49h203.2" stroke="#f2f2f2" stroke-width=".8"/><rect fill="#dddefd" height="2.4" rx=".8" width="93.6" x="24.8" y="91.8"/><rect fill="#8d1ff9" height="2.4" rx="1.2" width="52" x="24.8" y="91.8"/></g><g transform="translate(64 55)"><use fill="#000" filter="url(#f)" xlink:href="#e"/><use fill="#fff" xlink:href="#e"/><rect fill="#cbd7e7" height="6" rx="3" width="116" x="20" y="20"/><g fill="#e2e8f0"><g transform="translate(20 38)"><rect height="3" rx="1.5" width="195"/><rect height="3" rx="1.5" width="195" y="7"/><rect height="3" rx="1.5" width="161" y="14"/></g><g transform="translate(20 65)"><rect height="3" rx="1.5" width="195"/><rect height="3" rx="1.5" width="195" y="7"/><rect height="3" rx="1.5" width="161" y="14"/><rect height="3" rx="1.5" width="55" y="27"/></g></g></g></g></svg>