<svg xmlns="http://www.w3.org/2000/svg" width="24" height="24" viewBox="0 0 24 24">
    <path fill="#6747C7" fill-rule="evenodd" d="M12 0C5.381 0 0 5.381 0 12s5.381 12 12 12 12-5.386 12-12c0-6.619-5.381-12-12-12zm0 1.2c5.953 0 10.8 4.842 10.8 10.8 0 5.958-4.847 10.8-10.8 10.8S1.2 17.953 1.2 12C1.2 6.042 6.047 1.2 12 1.2zm0 1.2a9.578 9.578 0 0 0-8.025 4.313c.225.009.46.037.637.037 1.004 0 2.55-.15 2.55-.15.516-.028.554.764.038.825 0 0-.51.042-1.088.075L9.3 17.025l2.1-6.3L10.238 7.5c-.516-.028-1.013-.075-1.013-.075-.52-.033-.478-.858.037-.825 0 0 1.608.15 2.55.15 1.004 0 2.55-.15 2.55-.15.52-.028.591.764.075.825 0 0-.548.042-1.124.075l3.487 9.6.975-3.188c.314-1.28.713-2.287.713-3.112 0-.9-.413-1.317-.788-1.95-.473-.797-.938-1.458-.938-2.25 0-.881.67-1.688 1.613-1.688.042 0 .07-.004.113 0A9.573 9.573 0 0 0 12 2.4zm8.438 4.988c.042.304.018.618.037.975.047.975-.145 2.475-.375 3.187-.731 2.264-2.888 8.475-2.888 8.475.038-.014.108-.042.263-.15A9.505 9.505 0 0 0 21.6 12a9.568 9.568 0 0 0-1.163-4.612zM3.224 8.1A9.562 9.562 0 0 0 2.4 12a9.575 9.575 0 0 0 5.4 8.625L3.225 8.1zm8.963 4.725l-2.888 8.4a9.513 9.513 0 0 0 2.7.375c1.116 0 2.19-.173 3.188-.525a1.492 1.492 0 0 1-.075-.15l-2.925-8.1z"/>
</svg>
